<svg width="24" height="12" viewBox="0 0 24 12" fill="none" xmlns="http://www.w3.org/2000/svg">
<path d="M24.0003 5.9984C23.992 5.7839 23.9037 5.53592 23.7566 5.37959L18.9564 0.279378C18.6312 -0.0129646 18.0074 -0.133502 17.6439 0.204462C17.2858 0.537401 17.2965 1.18279 17.6531 1.51698L21.0281 5.09837H0.900063C0.40306 5.09837 0 5.50141 0 5.99843C0 6.49545 0.403044 6.89849 0.900063 6.89849H21.0281L17.6531 10.4799C17.3459 10.7875 17.2892 11.4559 17.6439 11.7924C17.9984 12.1291 18.6444 12.0215 18.9564 11.7173L23.7566 6.61706C23.9208 6.44254 24.0008 6.23767 24.0003 5.99825V5.9984Z" fill="white"/>
</svg>
